<svg xmlns="http://www.w3.org/2000/svg" xmlns:xlink="http://www.w3.org/1999/xlink" preserveAspectRatio="xMidYMid" width="63.25" height="58.031" viewBox="0 0 63.25 58.031">
  <defs>
    <style>
      .cls-1 {
        fill: #f28c00;
      }

      .cls-1, .cls-2 {
        fill-rule: evenodd;
      }

      .cls-2 {
        fill: #73797c;
      }
    </style>
  </defs>
  <g>
    <path d="M45.181,44.939 C40.680,44.939 37.728,42.299 37.728,38.664 L37.728,30.118 C37.728,26.569 40.680,23.928 45.181,23.928 C49.682,23.928 52.707,26.569 52.707,30.118 L52.707,38.664 C52.707,42.299 49.646,44.939 45.181,44.939 ZM45.793,30.232 C45.793,29.862 45.577,29.664 45.217,29.664 C44.857,29.664 44.641,29.862 44.641,30.203 L44.641,38.551 C44.641,38.920 44.857,39.119 45.217,39.119 C45.541,39.119 45.793,38.920 45.793,38.551 L45.793,30.232 ZM34.373,44.939 L28.117,44.939 C28.016,44.939 27.882,44.854 27.882,44.740 L27.882,30.317 C27.882,30.232 27.782,30.146 27.682,30.146 C26.812,30.146 26.711,30.146 26.711,29.948 L26.711,24.155 C26.711,24.042 26.845,23.928 27.013,23.928 L34.340,23.928 C34.473,23.928 34.607,24.042 34.607,24.155 L34.607,44.712 C34.607,44.826 34.507,44.939 34.373,44.939 Z" class="cls-1"/>
    <path d="M48.547,50.568 C48.687,50.633 48.894,50.703 49.168,50.778 C49.441,50.853 49.812,50.949 50.281,51.066 C50.854,51.203 51.350,51.346 51.770,51.496 C52.190,51.645 52.540,51.831 52.820,52.052 C53.100,52.274 53.308,52.544 53.445,52.863 C53.582,53.182 53.650,53.579 53.650,54.054 C53.650,54.497 53.559,54.907 53.377,55.285 C53.194,55.662 52.937,55.991 52.605,56.271 C52.273,56.551 51.871,56.771 51.399,56.930 C50.927,57.090 50.398,57.169 49.812,57.169 C47.364,57.169 46.003,56.115 45.730,54.005 L48.074,54.005 C48.197,54.813 48.770,55.216 49.793,55.216 C50.300,55.216 50.686,55.119 50.950,54.923 C51.213,54.728 51.345,54.490 51.345,54.210 C51.345,54.080 51.317,53.971 51.262,53.883 C51.207,53.795 51.098,53.714 50.935,53.639 C50.772,53.564 50.548,53.488 50.261,53.410 C49.975,53.332 49.604,53.234 49.148,53.117 C48.588,52.980 48.106,52.842 47.703,52.702 C47.299,52.562 46.967,52.389 46.707,52.184 C46.446,51.979 46.252,51.724 46.126,51.417 C45.999,51.112 45.935,50.724 45.935,50.255 C45.935,49.852 46.020,49.476 46.189,49.127 C46.358,48.779 46.599,48.476 46.912,48.219 C47.224,47.962 47.602,47.760 48.044,47.614 C48.487,47.467 48.982,47.394 49.529,47.394 C51.905,47.394 53.178,48.341 53.347,50.236 L51.052,50.236 C50.896,49.643 50.424,49.347 49.636,49.347 C49.434,49.347 49.249,49.363 49.080,49.396 C48.910,49.429 48.762,49.477 48.635,49.542 C48.508,49.608 48.409,49.689 48.337,49.787 C48.266,49.884 48.230,49.995 48.230,50.119 C48.230,50.216 48.248,50.299 48.284,50.368 C48.319,50.436 48.407,50.503 48.547,50.568 ZM41.706,51.027 C41.706,50.447 41.613,50.034 41.428,49.787 C41.242,49.539 40.935,49.415 40.505,49.415 C39.880,49.415 39.229,49.793 38.552,50.548 L38.552,56.945 L36.257,56.945 L36.257,47.619 L38.552,47.619 L38.552,48.166 C39.216,47.651 39.939,47.394 40.720,47.394 C42.927,47.394 44.030,48.582 44.030,50.958 L44.030,56.945 L41.706,56.945 L41.706,51.027 ZM31.735,56.457 C31.357,56.684 30.949,56.860 30.510,56.984 C30.070,57.107 29.600,57.169 29.098,57.169 C28.630,57.169 28.193,57.099 27.790,56.959 C27.386,56.820 27.036,56.623 26.740,56.369 C26.444,56.115 26.211,55.812 26.042,55.460 C25.872,55.109 25.788,54.722 25.788,54.298 C25.788,52.039 27.647,50.910 31.364,50.910 L31.735,50.910 C31.729,50.656 31.707,50.433 31.672,50.241 C31.636,50.049 31.559,49.886 31.442,49.752 C31.325,49.619 31.156,49.518 30.934,49.450 C30.713,49.381 30.417,49.347 30.046,49.347 C29.583,49.347 29.217,49.419 28.947,49.562 C28.677,49.705 28.493,49.975 28.395,50.373 L26.042,50.373 C26.315,48.387 27.682,47.394 30.143,47.394 C30.742,47.394 31.281,47.448 31.760,47.555 C32.238,47.663 32.645,47.853 32.980,48.126 C33.315,48.400 33.573,48.771 33.752,49.240 C33.931,49.708 34.020,50.304 34.020,51.027 L34.020,56.945 L31.735,56.945 L31.735,56.457 ZM31.735,52.794 L31.061,52.794 C29.108,52.794 28.132,53.270 28.132,54.220 C28.132,54.533 28.259,54.777 28.512,54.953 C28.766,55.128 29.108,55.216 29.538,55.216 C29.968,55.216 30.381,55.130 30.778,54.957 C31.175,54.785 31.494,54.533 31.735,54.201 L31.735,52.794 Z" class="cls-2"/>
    <path d="M56.387,3.139 L57.959,6.863 L61.984,7.209 C62.264,7.233 62.377,7.581 62.165,7.765 L59.112,10.412 L60.027,14.350 C60.090,14.624 59.794,14.839 59.554,14.694 L56.095,12.606 L52.635,14.694 C52.395,14.838 52.099,14.623 52.162,14.350 L53.077,10.412 L50.024,7.764 C49.812,7.581 49.925,7.232 50.204,7.208 L54.230,6.862 L55.802,3.139 C55.911,2.880 56.277,2.880 56.387,3.139 Z" class="cls-2"/>
    <path d="M14.387,33.139 L15.959,36.863 L19.984,37.209 C20.264,37.233 20.377,37.581 20.165,37.765 L17.112,40.412 L18.027,44.350 C18.090,44.624 17.794,44.839 17.554,44.694 L14.095,42.606 L10.635,44.694 C10.395,44.838 10.099,44.623 10.162,44.350 L11.077,40.412 L8.024,37.764 C7.812,37.581 7.925,37.232 8.204,37.208 L12.230,36.862 L13.802,33.139 C13.911,32.880 14.277,32.880 14.387,33.139 Z" class="cls-2"/>
    <path d="M2.854,52.934 L3.546,54.573 L5.317,54.725 C5.440,54.736 5.490,54.889 5.397,54.970 L4.054,56.134 L4.456,57.867 C4.484,57.988 4.354,58.082 4.248,58.018 L2.726,57.100 L1.204,58.018 C1.098,58.082 0.968,57.987 0.996,57.867 L1.398,56.134 L0.055,54.969 C-0.039,54.889 0.011,54.735 0.134,54.725 L1.905,54.572 L2.597,52.934 C2.645,52.820 2.806,52.820 2.854,52.934 Z" class="cls-2"/>
    <path d="M5.827,27.435 L6.381,28.746 L7.798,28.867 C7.896,28.876 7.936,28.999 7.861,29.063 L6.787,29.995 L7.109,31.381 C7.131,31.478 7.027,31.553 6.942,31.502 L5.725,30.767 L4.507,31.502 C4.422,31.553 4.318,31.477 4.340,31.381 L4.663,29.995 L3.588,29.063 C3.513,28.998 3.553,28.876 3.651,28.867 L5.068,28.745 L5.622,27.435 C5.660,27.344 5.789,27.344 5.827,27.435 Z" class="cls-1"/>
    <path d="M41.827,10.435 L42.381,11.746 L43.798,11.867 C43.896,11.876 43.936,11.999 43.861,12.063 L42.787,12.995 L43.109,14.381 C43.131,14.478 43.027,14.553 42.942,14.502 L41.725,13.767 L40.507,14.502 C40.422,14.553 40.318,14.477 40.340,14.381 L40.663,12.995 L39.588,12.063 C39.513,11.998 39.553,11.876 39.651,11.867 L41.068,11.745 L41.622,10.435 C41.660,10.344 41.789,10.344 41.827,10.435 Z" class="cls-1"/>
    <path d="M61.799,0.040 L62.187,0.958 L63.179,1.043 C63.248,1.049 63.276,1.135 63.223,1.180 L62.471,1.832 L62.696,2.803 C62.712,2.870 62.639,2.923 62.580,2.887 L61.728,2.373 L60.875,2.887 C60.816,2.923 60.743,2.870 60.759,2.803 L60.984,1.832 L60.232,1.180 C60.179,1.135 60.207,1.049 60.276,1.043 L61.268,0.958 L61.655,0.040 C61.682,-0.024 61.773,-0.024 61.799,0.040 Z" class="cls-1"/>
    <path d="M21.264,40.449 L21.535,41.091 L22.230,41.151 C22.278,41.155 22.298,41.215 22.261,41.246 L21.734,41.703 L21.892,42.382 C21.903,42.429 21.852,42.467 21.811,42.442 L21.214,42.081 L20.617,42.442 C20.576,42.466 20.525,42.429 20.536,42.382 L20.694,41.703 L20.167,41.246 C20.130,41.215 20.150,41.155 20.198,41.150 L20.892,41.091 L21.163,40.449 C21.182,40.404 21.245,40.404 21.264,40.449 Z" class="cls-1"/>
  </g>
</svg>
