<?xml version="1.0" encoding="UTF-8" standalone="no"?>
<svg
   xmlns:dc="http://purl.org/dc/elements/1.1/"
   xmlns:cc="http://creativecommons.org/ns#"
   xmlns:rdf="http://www.w3.org/1999/02/22-rdf-syntax-ns#"
   xmlns:svg="http://www.w3.org/2000/svg"
   xmlns="http://www.w3.org/2000/svg"
   viewBox="0 0 764.17377 324.17374"
   height="324.17374"
   width="764.17377"
   xml:space="preserve"
   version="1.1"
   id="svg2"><metadata
     id="metadata8"><rdf:RDF><cc:Work
         rdf:about=""><dc:format>image/svg+xml</dc:format><dc:type
           rdf:resource="http://purl.org/dc/dcmitype/StillImage" /></cc:Work></rdf:RDF></metadata><defs
     id="defs6"><clipPath
       id="clipPath16"
       clipPathUnits="userSpaceOnUse"><path
         id="path18"
         d="m 0,259.339 611.339,0 L 611.339,0 0,0 0,259.339 Z" /></clipPath></defs><g
     transform="matrix(1.25,0,0,-1.25,0,324.17375)"
     id="g10"><g
       id="g12"><g
         clip-path="url(#clipPath16)"
         id="g14"><g
           transform="translate(117.0399,143.4213)"
           id="g20"><path
             id="path22"
             style="fill:#ffffff;fill-opacity:1;fill-rule:nonzero;stroke:none"
             d="m 0,0 c -3.406,0 -6.236,-1.205 -8.489,-3.613 -2.253,-2.408 -3.379,-5.496 -3.379,-9.263 0,-3.794 1.146,-6.917 3.439,-9.364 2.294,-2.449 5.115,-3.674 8.469,-3.674 3.459,0 6.329,1.205 8.608,3.613 2.28,2.407 3.42,5.564 3.42,9.465 0,3.82 -1.14,6.916 -3.42,9.283 C 6.369,-1.185 3.486,0 0,0 m 11.583,9.041 11.02,0 0,-43.915 -11.02,0 0,4.642 c -2.15,-2.045 -4.307,-3.519 -6.47,-4.42 -2.164,-0.902 -4.509,-1.352 -7.036,-1.352 -5.671,0 -10.576,2.199 -14.715,6.6 -4.139,4.398 -6.209,9.868 -6.209,16.407 0,6.78 2.003,12.337 6.008,16.67 4.004,4.333 8.869,6.499 14.594,6.499 2.634,0 5.106,-0.499 7.417,-1.494 2.312,-0.995 4.449,-2.489 6.411,-4.481 l 0,4.844 z" /></g><g
           transform="translate(148.6761,152.4623)"
           id="g24"><path
             id="path26"
             style="fill:#ffffff;fill-opacity:1;fill-rule:nonzero;stroke:none"
             d="m 0,0 11.14,0 0,-21.15 c 0,-4.118 0.283,-6.977 0.85,-8.578 0.566,-1.6 1.477,-2.845 2.731,-3.733 1.254,-0.889 2.799,-1.332 4.634,-1.332 1.833,0 3.391,0.438 4.673,1.311 1.281,0.875 2.232,2.16 2.852,3.855 0.459,1.266 0.688,3.97 0.688,8.113 l 0,21.514 11.019,0 0,-18.607 c 0,-7.669 -0.605,-12.916 -1.816,-15.743 -1.48,-3.444 -3.66,-6.088 -6.538,-7.93 -2.88,-1.843 -6.54,-2.765 -10.979,-2.765 -4.818,0 -8.713,1.076 -11.686,3.229 -2.973,2.152 -5.065,5.152 -6.276,9 C 0.43,-30.151 0,-25.308 0,-18.284 L 0,0 Z" /></g><g
           transform="translate(193.6732,152.4623)"
           id="g28"><path
             id="path30"
             style="fill:#ffffff;fill-opacity:1;fill-rule:nonzero;stroke:none"
             d="m 0,0 9.445,0 0,-5.529 c 1.023,2.179 2.382,3.834 4.077,4.965 1.695,1.129 3.552,1.695 5.57,1.695 1.427,0 2.92,-0.378 4.481,-1.131 l -3.431,-9.485 c -1.292,0.645 -2.355,0.968 -3.189,0.968 -1.695,0 -3.128,-1.049 -4.299,-3.148 -1.171,-2.099 -1.756,-6.216 -1.756,-12.351 l 0.041,-2.139 0,-17.76 L 0,-43.915 0,0 Z" /></g><g
           transform="translate(241.4564,143.4213)"
           id="g32"><path
             id="path34"
             style="fill:#ffffff;fill-opacity:1;fill-rule:nonzero;stroke:none"
             d="m 0,0 c -3.406,0 -6.235,-1.205 -8.488,-3.613 -2.253,-2.408 -3.38,-5.496 -3.38,-9.263 0,-3.794 1.146,-6.917 3.439,-9.364 2.294,-2.449 5.116,-3.674 8.469,-3.674 3.459,0 6.33,1.205 8.608,3.613 2.28,2.407 3.42,5.564 3.42,9.465 0,3.82 -1.14,6.916 -3.42,9.283 C 6.37,-1.185 3.486,0 0,0 m 11.583,9.041 11.02,0 0,-43.915 -11.02,0 0,4.642 c -2.15,-2.045 -4.307,-3.519 -6.47,-4.42 -2.164,-0.902 -4.509,-1.352 -7.035,-1.352 -5.672,0 -10.577,2.199 -14.716,6.6 -4.139,4.398 -6.208,9.868 -6.208,16.407 0,6.78 2.002,12.337 6.007,16.67 4.005,4.333 8.869,6.499 14.594,6.499 2.634,0 5.106,-0.499 7.418,-1.494 2.311,-0.995 4.448,-2.489 6.41,-4.481 l 0,4.844 z" /></g><g
           transform="translate(268.2694,152.4623)"
           id="g36"><path
             id="path38"
             style="fill:#ffffff;fill-opacity:1;fill-rule:nonzero;stroke:none"
             d="M 0,0 10.786,0 19.617,-24.984 29.119,0 35.714,0 45.046,-24.702 53.886,0 64.744,0 48.72,-43.915 l -6.984,0 -9.364,25.025 -9.646,-25.025 -6.903,0 L 0,0 Z" /></g><g
           transform="translate(357.9896,143.2191)"
           id="g40"><path
             id="path42"
             style="fill:#ffffff;fill-opacity:1;fill-rule:nonzero;stroke:none"
             d="m 0,0 c -3.424,0 -6.275,-1.19 -8.553,-3.571 -2.277,-2.383 -3.416,-5.43 -3.416,-9.143 0,-3.821 1.125,-6.917 3.375,-9.284 2.252,-2.368 5.102,-3.552 8.553,-3.552 3.449,0 6.32,1.198 8.611,3.592 2.291,2.396 3.438,5.476 3.438,9.244 0,3.767 -1.127,6.827 -3.377,9.182 C 6.381,-1.177 3.502,0 0,0 m -0.182,10.374 c 4.143,0 8.039,-1.036 11.684,-3.108 3.646,-2.074 6.492,-4.884 8.537,-8.437 2.045,-3.551 3.068,-7.386 3.068,-11.503 0,-4.143 -1.029,-8.018 -3.087,-11.625 -2.059,-3.606 -4.864,-6.425 -8.417,-8.456 -3.552,-2.031 -7.466,-3.047 -11.746,-3.047 -6.296,0 -11.671,2.241 -16.125,6.721 -4.453,4.479 -6.679,9.922 -6.679,16.326 0,6.862 2.515,12.58 7.547,17.154 4.414,3.983 9.486,5.975 15.218,5.975" /></g><g
           transform="translate(385.4486,152.4623)"
           id="g44"><path
             id="path46"
             style="fill:#ffffff;fill-opacity:1;fill-rule:nonzero;stroke:none"
             d="m 0,0 9.445,0 0,-5.529 c 1.022,2.179 2.381,3.834 4.077,4.965 1.695,1.129 3.552,1.695 5.57,1.695 1.426,0 2.92,-0.378 4.48,-1.131 l -3.431,-9.485 c -1.291,0.645 -2.354,0.968 -3.188,0.968 -1.695,0 -3.129,-1.049 -4.299,-3.148 -1.172,-2.099 -1.756,-6.216 -1.756,-12.351 l 0.04,-2.139 0,-17.76 L 0,-43.915 0,0 Z" /></g><g
           transform="translate(460.2084,143.4213)"
           id="g48"><path
             id="path50"
             style="fill:#ffffff;fill-opacity:1;fill-rule:nonzero;stroke:none"
             d="m 0,0 c -3.404,0 -6.234,-1.205 -8.486,-3.613 -2.254,-2.408 -3.381,-5.496 -3.381,-9.263 0,-3.794 1.146,-6.917 3.439,-9.364 2.293,-2.449 5.115,-3.674 8.469,-3.674 3.459,0 6.328,1.205 8.607,3.613 2.28,2.407 3.42,5.564 3.42,9.465 0,3.82 -1.14,6.916 -3.42,9.283 C 6.369,-1.185 3.488,0 0,0 m 11.584,25.994 11.02,0 0,-60.868 -11.02,0 0,4.642 c -2.15,-2.045 -4.309,-3.519 -6.471,-4.42 -2.164,-0.902 -4.508,-1.352 -7.035,-1.352 -5.67,0 -10.576,2.199 -14.717,6.6 -4.138,4.398 -6.207,9.868 -6.207,16.407 0,6.78 2.002,12.337 6.008,16.67 4.004,4.333 8.869,6.499 14.594,6.499 2.635,0 5.105,-0.499 7.418,-1.494 2.31,-0.995 4.447,-2.489 6.41,-4.481 l 0,21.797 z" /></g><g
           transform="translate(365.6986,66.3363)"
           id="g52"><path
             id="path54"
             style="fill:#eb8d37;fill-opacity:1;fill-rule:nonzero;stroke:none"
             d="m 0,0 c -4.568,-6.917 -8.986,-10.44 -14.992,-11.831 -9.416,-2.181 -12.36,4.794 -13.113,8.056 -2.235,9.638 3.199,20.583 11.132,22.42 4.002,0.927 6.948,-0.656 7.789,-4.288 0.739,-3.188 -0.136,-6.829 -2.261,-9.117 -1.713,0.306 -3.162,0.829 -4.385,1.718 1.504,3.631 1.81,4.324 1.486,5.734 -0.293,1.262 -1.097,1.699 -2.431,1.391 -3.93,-0.911 -6.659,-10.371 -5.303,-16.229 0.859,-3.706 3.705,-5.546 7.115,-4.755 4.746,1.097 9.272,5.505 13.537,13.056 L 0,0 Z" /></g><g
           transform="translate(383.4838,83.6586)"
           id="g56"><path
             id="path58"
             style="fill:#eb8d37;fill-opacity:1;fill-rule:nonzero;stroke:none"
             d="m 0,0 c -3.756,2.724 -4.811,3.573 -6.738,3.127 -4.598,-1.066 -7.586,-8.398 -6.076,-14.923 0.912,-3.93 3.154,-6.533 5.232,-6.053 2.074,0.481 5.117,4.544 7.293,9.657 0.096,0.257 0.211,0.439 0.268,0.53 L 0,0 Z m 16.988,-9.269 c -4.414,-6.568 -8.056,-10.066 -11.394,-10.838 -4.002,-0.927 -4.912,4.014 -5.319,6.108 -3.504,-6.122 -5.818,-8.611 -8.636,-9.264 -4.373,-1.013 -9.18,2.873 -10.485,8.508 -2.523,10.898 3.867,20.738 10.467,22.267 2.889,0.669 5.533,-0.283 8.348,-2.99 L 0.164,9.411 6.17,10.803 5.91,-5.271 c -0.027,-2.584 0.168,-6.131 0.375,-7.023 0.205,-0.889 0.623,-1.34 1.143,-1.22 1.556,0.361 4.689,4.369 8.136,10.401 l 1.424,-6.156 z" /></g><g
           transform="translate(400.9486,113.1693)"
           id="g60"><path
             id="path62"
             style="fill:#eb8d37;fill-opacity:1;fill-rule:nonzero;stroke:none"
             d="m 0,0 6.078,1.408 -1.51,-16.755 c 3.6,0.991 4.489,1.197 6.729,1.638 l 0.125,-4.582 C 8.865,-18.725 7.104,-19.211 4.1,-20.064 l -0.096,-1.272 c -0.43,-5.566 -0.119,-8.934 0.619,-12.122 0.875,-3.779 2.332,-6.021 3.666,-5.712 1.334,0.309 4.51,3.467 9.09,11.012 l 1.424,-6.156 C 13.025,-42.76 9.115,-44.758 7.039,-45.238 c -3.633,-0.842 -7.059,2.816 -8.502,9.045 -0.787,3.409 -0.887,6.199 -0.613,12.434 l 0.096,2.288 -2.213,-0.904 -0.373,2.961 c -0.098,0.758 0.478,0.969 2.97,2.014 L 0,0 Z" /></g><g
           transform="translate(432.0814,98.8207)"
           id="g64"><path
             id="path66"
             style="fill:#eb8d37;fill-opacity:1;fill-rule:nonzero;stroke:none"
             d="M 0,0 C -0.24,1.038 -0.971,1.493 -2.008,1.253 -5.27,0.497 -8.004,-4.901 -7.955,-10.513 -2.373,-6.956 0.687,-2.966 0,0 M 15.459,-13.45 C 9.24,-20.67 2.947,-24.862 -3.947,-26.46 c -5.487,-1.269 -8.332,3.931 -9.43,8.674 -2.422,10.455 2.758,21.808 10.914,23.698 C 1.244,6.771 3.783,5.251 4.59,1.765 6.326,-5.722 -1.803,-11.434 -6.178,-14.478 l -1.344,-0.934 c 0.458,-2.317 1.362,-6.56 5.219,-5.667 5.635,1.305 10.336,5.283 16.354,13.71 l 1.408,-6.081 z" /></g><g
           transform="translate(445.8685,90.9203)"
           id="g68"><path
             id="path70"
             style="fill:#eb8d37;fill-opacity:1;fill-rule:nonzero;stroke:none"
             d="m 0,0 c 2.762,4.936 4.293,9.118 5.594,14.966 -0.959,1.107 -1.588,2.133 -1.793,3.023 -0.24,1.037 -0.248,2.755 -0.078,4.043 0.068,0.719 0.535,1.061 1.722,1.336 3.93,0.91 4.569,0.512 5.016,-1.417 0.309,-1.333 0.252,-2.44 -0.065,-4.779 5.858,-0.674 8.875,-1.226 10.077,-6.415 0.482,-2.074 0.437,-4.586 -0.186,-8.635 -0.318,-2.34 -0.42,-3.925 -0.246,-4.668 0.187,-0.814 0.734,-1.156 1.477,-0.986 2.074,0.482 5.279,4.193 9.666,11.224 l 1.423,-6.156 c -4.859,-6.67 -9.06,-10.457 -12.767,-11.314 -2.668,-0.619 -5.07,1.324 -5.844,4.662 -0.445,1.927 -0.351,4.213 0.342,7.968 0.549,3.02 0.656,4.918 0.383,6.104 -0.498,2.149 -2.137,3.488 -4.899,3.943 C 8.227,5.967 5.555,-0.042 1.391,-6.007 L 0,0 Z" /></g><g
           transform="translate(484.9076,130.8177)"
           id="g72"><path
             id="path74"
             style="fill:#eb8d37;fill-opacity:1;fill-rule:nonzero;stroke:none"
             d="m 0,0 c 0.359,-1.557 0.047,-4.597 -0.602,-5.842 -0.455,-0.73 -1.07,-1.107 -2.777,-1.501 -2.002,-0.464 -2.861,-0.117 -3.172,1.218 -0.172,0.741 -0.9,6.588 2.512,7.378 C -1.742,1.785 -0.311,1.335 0,0 m 11.365,-34.238 c -0.283,-0.455 -0.472,-0.656 -1.076,-1.421 -4.609,-6.067 -7.984,-9.036 -11.394,-9.826 -0.889,-0.206 -1.608,-0.138 -2.305,0.171 -1.244,0.648 -2.879,4.332 -3.875,8.63 -1.219,5.266 -1.145,12.705 0.064,20.639 l 6.078,1.406 -0.224,-2.394 c -0.93,-9.824 -0.92,-14.586 0.043,-18.738 0.584,-2.52 1.177,-3.399 2.14,-3.175 2.375,0.549 6.754,7.268 9.123,10.863 l 1.426,-6.155 z" /></g><g
           transform="translate(501.5599,120.3011)"
           id="g76"><path
             id="path78"
             style="fill:#eb8d37;fill-opacity:1;fill-rule:nonzero;stroke:none"
             d="m 0,0 c -0.531,-4.106 -0.758,-6.501 -0.877,-10.044 5.916,8.869 8.811,11.882 12.072,12.638 2.522,0.584 5.12,-1.863 5.977,-5.57 0.412,-1.778 0.416,-4.824 -0.026,-8.987 -0.357,-3.52 -0.363,-5.864 -0.052,-7.199 0.308,-1.335 0.926,-1.974 1.668,-1.802 0.814,0.189 5.615,4.426 9.299,11.451 l 1.425,-6.155 -1.174,-1.678 c -4.41,-6.254 -7.087,-8.515 -10.425,-9.288 -3.041,-0.705 -5.658,1.5 -6.621,5.653 -0.428,1.854 -0.438,4.585 0.043,8.916 0.295,3.115 0.334,5.309 0.111,6.275 -0.309,1.334 -0.961,2.121 -1.629,1.966 C 8.086,-4.218 5.613,-7.37 0.031,-16.317 l -0.572,-0.913 c 0.277,-2.203 0.451,-2.944 1,-5.316 0.481,-2.076 0.879,-3.469 1.471,-5.676 l 0.467,-1.687 -5.856,-1.357 c -0.545,1.671 -0.783,2.708 -1.186,4.101 l -1.04,3.82 -0.549,2.373 c -0.996,4.299 -1.014,10.782 0.08,19.547 L 0,0 Z" /></g><g
           transform="translate(544.7591,86.2513)"
           id="g80"><path
             id="path82"
             style="fill:#eb8d37;fill-opacity:1;fill-rule:nonzero;stroke:none"
             d="m 0,0 c 0.207,-0.892 1.416,-1.393 2.676,-1.101 2.002,0.464 2.4,2.119 2.172,9.175 C 1.342,3.981 -0.291,1.26 0,0 m 4.176,35.26 c -3.076,2.491 -4.805,3.885 -6.955,3.386 -2.893,-0.669 -8.114,-5.783 -5.95,-15.125 0.911,-3.928 3.03,-6.33 5.18,-5.832 2.445,0.567 5.168,5.337 6.49,8.066 l 0.842,1.757 c 0.383,0.715 0.557,1.302 0.506,1.524 L 4.176,35.26 Z M 4.437,21.65 3.6,20.206 c -3.137,-5.336 -5.332,-7.329 -8.075,-7.964 -4.523,-1.048 -8.98,2.686 -10.371,8.691 -2.25,9.712 2.864,20.347 10.649,22.15 2.521,0.584 4.226,-0.035 8.179,-2.946 l -0.099,4.818 5.932,1.375 0.697,-25.617 c 1.803,1.949 6.42,6.963 14.39,19.266 7.813,12.064 -13.851,17.063 -11.199,25.457 l 6.518,6.459 C 19.315,64.613 41.057,53.281 28.959,37.736 17.551,23.086 13.354,16.631 10.762,13.897 10.967,1.211 9.129,-3.668 3.791,-4.904 c -4.076,-0.945 -7.853,0.523 -8.49,3.268 -0.961,4.151 4.5,10.259 7.775,13.986 0.865,0.982 1.094,1.348 1.584,1.929 L 4.437,21.65 Z" /></g><g
           transform="translate(424.3177,152.681)"
           id="g84"><path
             id="path86"
             style="fill:#eb8d37;fill-opacity:1;fill-rule:nonzero;stroke:none"
             d="m 0,0 c 0,0 2.736,-1.152 2.736,-3.744 0,-2.592 -1.263,-30.717 -1.728,-33.409 -0.479,-2.784 1.162,-6.609 4.896,-6.913 3.553,-0.287 4.608,1.92 4.034,9.073 -0.584,7.228 -1.584,6.913 -1.584,32.112 l -0.579,0.432 0,0.72 0.721,0.337 c 0,0 0.287,18.288 0.721,26.162 0.422,7.669 2.832,19.775 1.008,20.591 C 8.559,46.107 2.906,45.521 1.152,31.537 -0.623,17.377 0,12.097 0,0" /></g><g
           transform="translate(411.3705,196.93)"
           id="g88"><path
             id="path90"
             style="fill:#eb8d37;fill-opacity:1;fill-rule:nonzero;stroke:none"
             d="m 0,0 0.92,0 0,-24.207 c 0,0 0.139,-0.605 0.635,-0.587 0.707,0.023 0.847,0.587 0.847,0.587 L 2.545,0 3.178,0 4.025,-24.207 c 0,0 -0.021,-0.611 0.639,-0.587 0.424,0.014 0.516,0.587 0.516,0.587 L 4.955,0 5.643,0 6.641,-24.207 c 0,0 0,-0.531 0.636,-0.587 0.801,-0.072 0.848,0.587 0.848,0.587 L 7.701,0 8.549,0 10.174,-29.622 c 0,0 -2.686,-4.098 -2.756,-4.875 -0.072,-0.777 0.07,-4.67 0.07,-4.67 l -1.271,0 c 0,0 2.84,-45.928 2.308,-47.474 -0.564,-1.643 -2.355,-1.95 -4.097,-1.95 -1.742,0 -3.768,0.659 -3.815,1.979 -0.049,1.318 2.258,47.445 2.258,47.445 l -1.223,0 0,4.67 -2.826,4.875 L 0,0 Z" /></g><path
           id="path92"
           style="fill:#ffffff;fill-opacity:1;fill-rule:nonzero;stroke:none"
           d="m 74.663,169.689 11.064,0 0,-61.116 -11.064,0 0,61.116 z" /></g></g></g></svg>