<?xml version="1.0" encoding="utf-8"?>
<!-- Generator: Adobe Illustrator 19.0.0, SVG Export Plug-In . SVG Version: 6.00 Build 0)  -->
<svg version="1.1"
	 id="svg2" xmlns:dc="http://purl.org/dc/elements/1.1/" xmlns:cc="http://creativecommons.org/ns#" xmlns:rdf="http://www.w3.org/1999/02/22-rdf-syntax-ns#" xmlns:svg="http://www.w3.org/2000/svg"
	 xmlns="http://www.w3.org/2000/svg" xmlns:xlink="http://www.w3.org/1999/xlink" x="0px" y="0px" viewBox="37 272.8 685.4 249.2"
	 style="enable-background:new 37 272.8 685.4 249.2;" xml:space="preserve">
<style type="text/css">
	.st0{clip-path:url(#SVGID_2_);}
	.st1{fill:#584434;}
	.st2{fill:#EB8D37;}
</style>
<g id="g10" transform="matrix(1.25,0,0,-1.25,0,249.17375)">
	<g id="g12">
		<g>
			<defs>
				<rect id="SVGID_1_" x="-38.9" y="-243.2" width="685.4" height="249.2"/>
			</defs>
			<clipPath id="SVGID_2_">
				<use xlink:href="#SVGID_1_"  style="overflow:visible;"/>
			</clipPath>
			<g id="g14" class="st0">
				<g id="g20" transform="translate(55.0399,136.4213)">
					<path id="path22" class="st1" d="M29.6-218.3c-3.4,0-6.2-1.2-8.5-3.6c-2.3-2.4-3.4-5.5-3.4-9.3c0-3.8,1.1-6.9,3.4-9.4
						c2.3-2.4,5.1-3.7,8.5-3.7c3.5,0,6.3,1.2,8.6,3.6c2.3,2.4,3.4,5.6,3.4,9.5c0,3.8-1.1,6.9-3.4,9.3
						C36-219.4,33.1-218.3,29.6-218.3 M41.2-209.2h11v-43.9h-11v4.6c-2.1-2-4.3-3.5-6.5-4.4c-2.2-0.9-4.5-1.4-7-1.4
						c-5.7,0-10.6,2.2-14.7,6.6c-4.1,4.4-6.2,9.9-6.2,16.4c0,6.8,2,12.3,6,16.7c4,4.3,8.9,6.5,14.6,6.5c2.6,0,5.1-0.5,7.4-1.5
						c2.3-1,4.4-2.5,6.4-4.5C41.2-214.1,41.2-209.2,41.2-209.2z"/>
				</g>
				<g id="g24" transform="translate(86.6761,145.4623)">
					<path id="path26" class="st1" d="M29.6-218.3h11.1v-21.1c0-4.1,0.3-7,0.8-8.6c0.6-1.6,1.5-2.8,2.7-3.7c1.3-0.9,2.8-1.3,4.6-1.3
						s3.4,0.4,4.7,1.3c1.3,0.9,2.2,2.2,2.9,3.9c0.5,1.3,0.7,4,0.7,8.1v21.5h11v-18.6c0-7.7-0.6-12.9-1.8-15.7
						c-1.5-3.4-3.7-6.1-6.5-7.9c-2.9-1.8-6.5-2.8-11-2.8c-4.8,0-8.7,1.1-11.7,3.2c-3,2.2-5.1,5.2-6.3,9c-0.9,2.7-1.3,7.5-1.3,14.5
						V-218.3z"/>
				</g>
				<g id="g28" transform="translate(131.6732,145.4623)">
					<path id="path30" class="st1" d="M29.6-218.3H39v-5.5c1,2.2,2.4,3.8,4.1,5c1.7,1.1,3.6,1.7,5.6,1.7c1.4,0,2.9-0.4,4.5-1.1
						l-3.4-9.5c-1.3,0.6-2.4,1-3.2,1c-1.7,0-3.1-1-4.3-3.1c-1.2-2.1-1.8-6.2-1.8-12.4l0-2.1v-17.8H29.6V-218.3z"/>
				</g>
				<g id="g32" transform="translate(179.4564,136.4213)">
					<path id="path34" class="st1" d="M29.6-218.3c-3.4,0-6.2-1.2-8.5-3.6c-2.3-2.4-3.4-5.5-3.4-9.3c0-3.8,1.1-6.9,3.4-9.4
						c2.3-2.4,5.1-3.7,8.5-3.7c3.5,0,6.3,1.2,8.6,3.6c2.3,2.4,3.4,5.6,3.4,9.5c0,3.8-1.1,6.9-3.4,9.3
						C36-219.4,33.1-218.3,29.6-218.3 M41.2-209.2h11v-43.9h-11v4.6c-2.1-2-4.3-3.5-6.5-4.4c-2.2-0.9-4.5-1.4-7-1.4
						c-5.7,0-10.6,2.2-14.7,6.6c-4.1,4.4-6.2,9.9-6.2,16.4c0,6.8,2,12.3,6,16.7c4,4.3,8.9,6.5,14.6,6.5c2.6,0,5.1-0.5,7.4-1.5
						c2.3-1,4.4-2.5,6.4-4.5C41.2-214.1,41.2-209.2,41.2-209.2z"/>
				</g>
				<g id="g36" transform="translate(206.2694,145.4623)">
					<path id="path38" class="st1" d="M29.6-218.3h10.8l8.8-25l9.5,25h6.6l9.3-24.7l8.8,24.7h10.9l-16-43.9h-7l-9.4,25l-9.6-25h-6.9
						L29.6-218.3z"/>
				</g>
				<g id="g40" transform="translate(295.9896,136.2191)">
					<path id="path42" class="st1" d="M29.6-218.3c-3.4,0-6.3-1.2-8.6-3.6c-2.3-2.4-3.4-5.4-3.4-9.1c0-3.8,1.1-6.9,3.4-9.3
						c2.3-2.4,5.1-3.6,8.6-3.6c3.4,0,6.3,1.2,8.6,3.6c2.3,2.4,3.4,5.5,3.4,9.2c0,3.8-1.1,6.8-3.4,9.2S33.1-218.3,29.6-218.3
						 M29.4-207.9c4.1,0,8-1,11.7-3.1c3.6-2.1,6.5-4.9,8.5-8.4c2-3.6,3.1-7.4,3.1-11.5c0-4.1-1-8-3.1-11.6c-2.1-3.6-4.9-6.4-8.4-8.5
						c-3.6-2-7.5-3-11.7-3c-6.3,0-11.7,2.2-16.1,6.7c-4.5,4.5-6.7,9.9-6.7,16.3c0,6.9,2.5,12.6,7.5,17.2
						C18.6-209.9,23.7-207.9,29.4-207.9"/>
				</g>
				<g id="g44" transform="translate(323.4486,145.4623)">
					<path id="path46" class="st1" d="M29.6-218.3H39v-5.5c1,2.2,2.4,3.8,4.1,5c1.7,1.1,3.6,1.7,5.6,1.7c1.4,0,2.9-0.4,4.5-1.1
						l-3.4-9.5c-1.3,0.6-2.4,1-3.2,1c-1.7,0-3.1-1-4.3-3.1c-1.2-2.1-1.8-6.2-1.8-12.4l0-2.1v-17.8H29.6V-218.3z"/>
				</g>
				<g id="g48" transform="translate(398.2084,136.4213)">
					<path id="path50" class="st1" d="M29.6-218.3c-3.4,0-6.2-1.2-8.5-3.6c-2.3-2.4-3.4-5.5-3.4-9.3c0-3.8,1.1-6.9,3.4-9.4
						c2.3-2.4,5.1-3.7,8.5-3.7c3.5,0,6.3,1.2,8.6,3.6c2.3,2.4,3.4,5.6,3.4,9.5c0,3.8-1.1,6.9-3.4,9.3
						C36-219.4,33.1-218.3,29.6-218.3 M41.2-192.3h11v-60.9h-11v4.6c-2.1-2-4.3-3.5-6.5-4.4c-2.2-0.9-4.5-1.4-7-1.4
						c-5.7,0-10.6,2.2-14.7,6.6c-4.1,4.4-6.2,9.9-6.2,16.4c0,6.8,2,12.3,6,16.7c4,4.3,8.9,6.5,14.6,6.5c2.6,0,5.1-0.5,7.4-1.5
						c2.3-1,4.4-2.5,6.4-4.5C41.2-214.1,41.2-192.3,41.2-192.3z"/>
				</g>
				<g id="g52" transform="translate(303.6986,59.3363)">
					<path id="path54" class="st2" d="M29.6-218.3c-4.6-6.9-9-10.4-15-11.8c-9.4-2.2-12.4,4.8-13.1,8.1c-2.2,9.6,3.2,20.6,11.1,22.4
						c4,0.9,6.9-0.7,7.8-4.3c0.7-3.2-0.1-6.8-2.3-9.1c-1.7,0.3-3.2,0.8-4.4,1.7c1.5,3.6,1.8,4.3,1.5,5.7c-0.3,1.3-1.1,1.7-2.4,1.4
						c-3.9-0.9-6.7-10.4-5.3-16.2c0.9-3.7,3.7-5.5,7.1-4.8c4.7,1.1,9.3,5.5,13.5,13.1L29.6-218.3z"/>
				</g>
				<g id="g56" transform="translate(321.4838,76.6586)">
					<path id="path58" class="st2" d="M29.6-218.3c-3.8,2.7-4.8,3.6-6.7,3.1c-4.6-1.1-7.6-8.4-6.1-14.9c0.9-3.9,3.2-6.5,5.2-6.1
						c2.1,0.5,5.1,4.5,7.3,9.7c0.1,0.3,0.2,0.4,0.3,0.5L29.6-218.3z M46.6-227.5c-4.4-6.6-8.1-10.1-11.4-10.8c-4-0.9-4.9,4-5.3,6.1
						c-3.5-6.1-5.8-8.6-8.6-9.3c-4.4-1-9.2,2.9-10.5,8.5c-2.5,10.9,3.9,20.7,10.5,22.3c2.9,0.7,5.5-0.3,8.3-3l0.2,4.9l6,1.4
						l-0.3-16.1c0-2.6,0.2-6.1,0.4-7c0.2-0.9,0.6-1.3,1.1-1.2c1.6,0.4,4.7,4.4,8.1,10.4C45.2-221.4,46.6-227.5,46.6-227.5z"/>
				</g>
				<g id="g60" transform="translate(338.9486,106.1693)">
					<path id="path62" class="st2" d="M29.6-218.3l6.1,1.4l-1.5-16.8c3.6,1,4.5,1.2,6.7,1.6l0.1-4.6c-2.6-0.4-4.3-0.9-7.3-1.8
						l-0.1-1.3c-0.4-5.6-0.1-8.9,0.6-12.1c0.9-3.8,2.3-6,3.7-5.7c1.3,0.3,4.5,3.5,9.1,11l1.4-6.2c-5.8-8.4-9.7-10.4-11.8-10.9
						c-3.6-0.8-7.1,2.8-8.5,9c-0.8,3.4-0.9,6.2-0.6,12.4l0.1,2.3l-2.2-0.9l-0.4,3c-0.1,0.8,0.5,1,3,2L29.6-218.3z"/>
				</g>
				<g id="g64" transform="translate(370.0814,91.8207)">
					<path id="path66" class="st2" d="M29.6-218.3c-0.2,1-1,1.5-2,1.3c-3.3-0.8-6-6.2-5.9-11.8C27.2-225.2,30.3-221.2,29.6-218.3
						 M45.1-231.7c-6.2-7.2-12.5-11.4-19.4-13c-5.5-1.3-8.3,3.9-9.4,8.7c-2.4,10.5,2.8,21.8,10.9,23.7c3.7,0.9,6.2-0.7,7.1-4.1
						c1.7-7.5-6.4-13.2-10.8-16.2l-1.3-0.9c0.5-2.3,1.4-6.6,5.2-5.7c5.6,1.3,10.3,5.3,16.4,13.7C43.7-225.6,45.1-231.7,45.1-231.7z"
						/>
				</g>
				<g id="g68" transform="translate(383.8685,83.9203)">
					<path id="path70" class="st2" d="M29.6-218.3c2.8,4.9,4.3,9.1,5.6,15c-1,1.1-1.6,2.1-1.8,3c-0.2,1-0.2,2.8-0.1,4
						c0.1,0.7,0.5,1.1,1.7,1.3c3.9,0.9,4.6,0.5,5-1.4c0.3-1.3,0.3-2.4-0.1-4.8c5.9-0.7,8.9-1.2,10.1-6.4c0.5-2.1,0.4-4.6-0.2-8.6
						c-0.3-2.3-0.4-3.9-0.2-4.7c0.2-0.8,0.7-1.2,1.5-1c2.1,0.5,5.3,4.2,9.7,11.2l1.4-6.2c-4.9-6.7-9.1-10.5-12.8-11.3
						c-2.7-0.6-5.1,1.3-5.8,4.7c-0.4,1.9-0.4,4.2,0.3,8c0.5,3,0.7,4.9,0.4,6.1c-0.5,2.1-2.1,3.5-4.9,3.9c-1.6-6.9-4.3-12.9-8.4-18.9
						L29.6-218.3z"/>
				</g>
				<g id="g72" transform="translate(422.9076,123.8177)">
					<path id="path74" class="st2" d="M29.6-218.3c0.4-1.6,0-4.6-0.6-5.8c-0.5-0.7-1.1-1.1-2.8-1.5c-2-0.5-2.9-0.1-3.2,1.2
						c-0.2,0.7-0.9,6.6,2.5,7.4C27.9-216.5,29.3-216.9,29.6-218.3 M41-252.5c-0.3-0.5-0.5-0.7-1.1-1.4c-4.6-6.1-8-9-11.4-9.8
						c-0.9-0.2-1.6-0.1-2.3,0.2c-1.2,0.6-2.9,4.3-3.9,8.6c-1.2,5.3-1.1,12.7,0.1,20.6l6.1,1.4l-0.2-2.4c-0.9-9.8-0.9-14.6,0-18.7
						c0.6-2.5,1.2-3.4,2.1-3.2c2.4,0.5,6.8,7.3,9.1,10.9C39.5-246.3,41-252.5,41-252.5z"/>
				</g>
				<g id="g76" transform="translate(439.5599,113.3011)">
					<path id="path78" class="st2" d="M29.6-218.3c-0.5-4.1-0.8-6.5-0.9-10c5.9,8.9,8.8,11.9,12.1,12.6c2.5,0.6,5.1-1.9,6-5.6
						c0.4-1.8,0.4-4.8,0-9c-0.4-3.5-0.4-5.9-0.1-7.2c0.3-1.3,0.9-2,1.7-1.8c0.8,0.2,5.6,4.4,9.3,11.5l1.4-6.2l-1.2-1.7
						c-4.4-6.3-7.1-8.5-10.4-9.3c-3-0.7-5.7,1.5-6.6,5.7c-0.4,1.9-0.4,4.6,0,8.9c0.3,3.1,0.3,5.3,0.1,6.3c-0.3,1.3-1,2.1-1.6,2
						c-1.7-0.4-4.2-3.5-9.8-12.5l-0.6-0.9c0.3-2.2,0.5-2.9,1-5.3c0.5-2.1,0.9-3.5,1.5-5.7l0.5-1.7l-5.9-1.4
						c-0.5,1.7-0.8,2.7-1.2,4.1l-1,3.8l-0.5,2.4c-1,4.3-1,10.8,0.1,19.5L29.6-218.3z"/>
				</g>
				<g id="g80" transform="translate(482.7591,79.2513)">
					<path id="path82" class="st2" d="M29.6-218.3c0.2-0.9,1.4-1.4,2.7-1.1c2,0.5,2.4,2.1,2.2,9.2C30.9-214.3,29.3-217,29.6-218.3
						 M33.8-183c-3.1,2.5-4.8,3.9-7,3.4c-2.9-0.7-8.1-5.8-6-15.1c0.9-3.9,3-6.3,5.2-5.8c2.4,0.6,5.2,5.3,6.5,8.1l0.8,1.8
						c0.4,0.7,0.6,1.3,0.5,1.5L33.8-183z M34-196.6l-0.8-1.4c-3.1-5.3-5.3-7.3-8.1-8c-4.5-1-9,2.7-10.4,8.7
						c-2.2,9.7,2.9,20.3,10.6,22.2c2.5,0.6,4.2,0,8.2-2.9l-0.1,4.8l5.9,1.4l0.7-25.6c1.8,1.9,6.4,7,14.4,19.3
						c7.8,12.1-13.9,17.1-11.2,25.5l6.5,6.5c-0.9-7.3,20.8-18.6,8.7-34.2c-11.4-14.7-15.6-21.1-18.2-23.8c0.2-12.7-1.6-17.6-7-18.8
						c-4.1-0.9-7.9,0.5-8.5,3.3c-1,4.2,4.5,10.3,7.8,14c0.9,1,1.1,1.3,1.6,1.9L34-196.6z"/>
				</g>
				<g id="g84" transform="translate(362.3177,145.681)">
					<path id="path86" class="st2" d="M29.6-218.3c0,0,2.7-1.2,2.7-3.7c0-2.6-1.3-30.7-1.7-33.4c-0.5-2.8,1.2-6.6,4.9-6.9
						c3.6-0.3,4.6,1.9,4,9.1C39-246,38-246.3,38-221.1l-0.6,0.4v0.7l0.7,0.3c0,0,0.3,18.3,0.7,26.2c0.4,7.7,2.8,19.8,1,20.6
						c-1.7,0.7-7.3,0.2-9.1-13.8C29-200.9,29.6-206.2,29.6-218.3"/>
				</g>
				<g id="g88" transform="translate(349.3705,189.93)">
					<path id="path90" class="st2" d="M29.6-218.3h0.9v-24.2c0,0,0.1-0.6,0.6-0.6c0.7,0,0.8,0.6,0.8,0.6l0.1,24.2h0.6l0.8-24.2
						c0,0,0-0.6,0.6-0.6c0.4,0,0.5,0.6,0.5,0.6l-0.2,24.2h0.7l1-24.2c0,0,0-0.5,0.6-0.6c0.8-0.1,0.8,0.6,0.8,0.6l-0.4,24.2h0.8
						l1.6-29.6c0,0-2.7-4.1-2.8-4.9c-0.1-0.8,0.1-4.7,0.1-4.7h-1.3c0,0,2.8-45.9,2.3-47.5c-0.6-1.6-2.4-2-4.1-2s-3.8,0.7-3.8,2
						c0,1.3,2.3,47.4,2.3,47.4h-1.2v4.7l-2.8,4.9L29.6-218.3z"/>
				</g>
				<path id="path92" class="st1" d="M42.3-55.6h11.1v-61.1H42.3V-55.6z"/>
			</g>
		</g>
	</g>
</g>
</svg>
