<?xml version="1.0" encoding="utf-8"?>
<!-- Generator: Adobe Illustrator 19.0.0, SVG Export Plug-In . SVG Version: 6.00 Build 0)  -->
<svg version="1.1"
	 id="svg2" xmlns:dc="http://purl.org/dc/elements/1.1/" xmlns:cc="http://creativecommons.org/ns#" xmlns:rdf="http://www.w3.org/1999/02/22-rdf-syntax-ns#" xmlns:svg="http://www.w3.org/2000/svg"
	 xmlns="http://www.w3.org/2000/svg" xmlns:xlink="http://www.w3.org/1999/xlink" x="0px" y="0px" viewBox="37 272.8 685.4 249.2"
	 style="enable-background:new 37 272.8 685.4 249.2;" xml:space="preserve">
<style type="text/css">
	.st0{clip-path:url(#SVGID_2_);}
	.st1{fill:#64BBE5;}
	.st2{fill:#584434;}
</style>
<g id="g10" transform="matrix(1.25,0,0,-1.25,0,249.17375)">
	<g id="g94">
		<g>
			<defs>
				<rect id="SVGID_1_" x="-38.9" y="-243.2" width="685.4" height="249.2"/>
			</defs>
			<clipPath id="SVGID_2_">
				<use xlink:href="#SVGID_1_"  style="overflow:visible;"/>
			</clipPath>
			<g id="g96" class="st0">
				<g id="g102" transform="translate(369.973,161.3436)">
					<path id="path104" class="st1" d="M29.6-218.3c0,0-1.4,4.5-1.5,6.9c0,0,3.3,4.3,3.8,4.5c0.5,0.2,1.7,1.9,2.3,2.5
						c0.6,0.6,2.9,3,5.1,3.1c2.2,0.1,4.3-0.4,4.6-1.3c0.3-0.8,1.2-2.1,1.8-2.8c0.6-0.7,1.1-3.3-0.1-4.8c-1.2-1.6-3.4-2.4-3.4-2.4
						s2.4,0.4,3.4,1.4c0,0,0.1-2.5-3.8-5.2c0,0,1.1,0.2,2.4,1.4c0,0-0.6-4.2-4.5-5.6c0,0-0.7-0.6,0.1-0.4c0.8,0.2,4,2.3,4,2.3
						s-5.7-5.5-9.5-6.6c0,0,5.6,2.1,7.4,3.7c0,0-3.4-3.7-9.7-6.4c0,0,3.2,0.5,8.8,4.4c0,0-2-4.1-3-4.7c-1-0.6-5.3-4.9-5.3-4.9
						l4.9,4.1c0,0-0.1-5-3.8-7.8c-3.7-2.8-6.1-2.8-6.7-3.8c0,0,3.6,0.9,4.5,0.8c0.9-0.1,3.9,0.7,4.7,1.4c0,0-1.8-2.6-3.1-3.7
						c-1.3-1.1-2.4-3.4-2.5-3.9c-0.1-0.4-1.5-2.5-3.9-3.8c0,0,2.4-0.1,3.5,0.9c1.1,1,2.1,3,2.6,3.1c0,0-1.3-3.3-1.7-4.3
						c-0.4-1.1-1.8-2.9-3.4-3.8c-1.6-0.9-9.1-4.6-9.1-4.6s8.3,2.5,10.6,4.7c0,0-0.9-1.8-1.4-2.6c-0.5-0.8-1.4-2.4-2.1-2.8
						c-0.7-0.3-2.7-1.9-3.1-2.7c-0.4-0.7-1.2-1.5-2.1-2.2c-0.9-0.7-2.1-1.7-2.4-2.1s-0.5-1.4-2.7-1.2c0,0-1.7-5.2-1.8-8
						c-0.1-2.8-0.7-6.6-2.1-7.9c0,0-0.5,4.4,1.1,12.4c0,0,0.1,0.4-0.1,1.4c-0.2,1-0.1,2.3,0.2,2.9c0.1-0.4,0.1-1.1,0.1-1.1l0.3-0.4
						c0,0,0.8,3.2,0.7,4.2c-0.1,1-2.4,3.5-2.6,4.2c-0.2,0.7-0.1,3.1-0.2,4.1c0,0,0.2,1.7,0,2c0,0,0.2-1.3,0.6-1.7
						c0.3-0.4,2.4-4.9,2.8-5c0,0,0.5-0.1,0.1,0.4c-0.4,0.6-2.4,3.4-2.4,5.9c0,2.6,0.2,6.5,0.2,6.5s0.3-6.4,0.8-7.2c0,0-0.6,7,0,8.7
						c0,0,0-3.2,0.3-3.3c0,0,0.2,5.9,0.5,6.4c0.3,0.5,0.6,1.7,0.6,2.2c0.1,0.5,0.5,0.6,0.5,1.2s0.1,2.8,0.6,3.7c0,0,0.5-8.5,3-10.6
						c0,0,0.4-0.2,0.2,0.3c-0.2,0.6-3,7.9-2.8,9.9c0.2,2,0.5,1.9,0.9,2.5c0.4,0.6,0.4,1.6,0.7,2.2c0.3,0.6,1.1,1.3,1.3,2.3
						c0.3,1,0.3,1.7,0.7,2.2c0.3,0.6,1.4,2.6,1.6,3.7c0.2,1.1,0.7,2.1,1.2,2.6c0.5,0.6,2.1,3.3,2.6,4.3c0.6,1.1,2.7,4,2.8,4
						C28-212.1,28.1-217.4,29.6-218.3"/>
				</g>
				<g id="g106" transform="translate(55.0399,136.121)">
					<path id="path108" class="st2" d="M29.6-218.3c-3.4,0-6.2-1.2-8.5-3.6c-2.3-2.4-3.4-5.5-3.4-9.3c0-3.8,1.1-6.9,3.4-9.4
						c2.3-2.4,5.1-3.7,8.5-3.7c3.5,0,6.3,1.2,8.6,3.6c2.3,2.4,3.4,5.6,3.4,9.5c0,3.8-1.1,6.9-3.4,9.3
						C36-219.4,33.1-218.3,29.6-218.3 M41.2-209.2h11v-43.9h-11v4.6c-2.1-2-4.3-3.5-6.5-4.4c-2.2-0.9-4.5-1.4-7-1.4
						c-5.7,0-10.6,2.2-14.7,6.6c-4.1,4.4-6.2,9.9-6.2,16.4c0,6.8,2,12.3,6,16.7c4,4.3,8.9,6.5,14.6,6.5c2.6,0,5.1-0.5,7.4-1.5
						c2.3-1,4.4-2.5,6.4-4.5C41.2-214.1,41.2-209.2,41.2-209.2z"/>
				</g>
				<g id="g110" transform="translate(86.6761,145.162)">
					<path id="path112" class="st2" d="M29.6-218.3h11.1v-21.1c0-4.1,0.3-7,0.8-8.6c0.6-1.6,1.5-2.8,2.7-3.7
						c1.3-0.9,2.8-1.3,4.6-1.3s3.4,0.4,4.7,1.3c1.3,0.9,2.2,2.2,2.9,3.9c0.5,1.3,0.7,4,0.7,8.1v21.5h11v-18.6
						c0-7.7-0.6-12.9-1.8-15.7c-1.5-3.4-3.7-6.1-6.5-7.9c-2.9-1.8-6.5-2.8-11-2.8c-4.8,0-8.7,1.1-11.7,3.2c-3,2.2-5.1,5.2-6.3,9
						c-0.9,2.7-1.3,7.5-1.3,14.5V-218.3z"/>
				</g>
				<g id="g114" transform="translate(131.6732,145.162)">
					<path id="path116" class="st2" d="M29.6-218.3H39v-5.5c1,2.2,2.4,3.8,4.1,5c1.7,1.1,3.6,1.7,5.6,1.7c1.4,0,2.9-0.4,4.5-1.1
						l-3.4-9.5c-1.3,0.6-2.4,1-3.2,1c-1.7,0-3.1-1-4.3-3.1c-1.2-2.1-1.8-6.2-1.8-12.4l0-2.1v-17.8H29.6V-218.3z"/>
				</g>
				<g id="g118" transform="translate(179.4564,136.121)">
					<path id="path120" class="st2" d="M29.6-218.3c-3.4,0-6.2-1.2-8.5-3.6c-2.3-2.4-3.4-5.5-3.4-9.3c0-3.8,1.1-6.9,3.4-9.4
						c2.3-2.4,5.1-3.7,8.5-3.7c3.5,0,6.3,1.2,8.6,3.6c2.3,2.4,3.4,5.6,3.4,9.5c0,3.8-1.1,6.9-3.4,9.3
						C36-219.4,33.1-218.3,29.6-218.3 M41.2-209.2h11v-43.9h-11v4.6c-2.1-2-4.3-3.5-6.5-4.4c-2.2-0.9-4.5-1.4-7-1.4
						c-5.7,0-10.6,2.2-14.7,6.6c-4.1,4.4-6.2,9.9-6.2,16.4c0,6.8,2,12.3,6,16.7c4,4.3,8.9,6.5,14.6,6.5c2.6,0,5.1-0.5,7.4-1.5
						c2.3-1,4.4-2.5,6.4-4.5C41.2-214.1,41.2-209.2,41.2-209.2z"/>
				</g>
				<g id="g122" transform="translate(206.2694,145.162)">
					<path id="path124" class="st2" d="M29.6-218.3h10.8l8.8-25l9.5,25h6.6l9.3-24.7l8.8,24.7h10.9l-16-43.9h-7l-9.4,25l-9.6-25
						h-6.9L29.6-218.3z"/>
				</g>
				<g id="g126" transform="translate(295.9896,135.9188)">
					<path id="path128" class="st2" d="M29.6-218.3c-3.4,0-6.3-1.2-8.6-3.6c-2.3-2.4-3.4-5.4-3.4-9.1c0-3.8,1.1-6.9,3.4-9.3
						c2.3-2.4,5.1-3.6,8.6-3.6c3.4,0,6.3,1.2,8.6,3.6c2.3,2.4,3.4,5.5,3.4,9.2c0,3.8-1.1,6.8-3.4,9.2S33.1-218.3,29.6-218.3
						 M29.4-207.9c4.1,0,8-1,11.7-3.1c3.6-2.1,6.5-4.9,8.5-8.4c2-3.6,3.1-7.4,3.1-11.5c0-4.1-1-8-3.1-11.6c-2.1-3.6-4.9-6.4-8.4-8.5
						c-3.6-2-7.5-3-11.7-3c-6.3,0-11.7,2.2-16.1,6.7c-4.5,4.5-6.7,9.9-6.7,16.3c0,6.9,2.5,12.6,7.5,17.2
						C18.6-209.9,23.7-207.9,29.4-207.9"/>
				</g>
				<g id="g130" transform="translate(323.4486,145.162)">
					<path id="path132" class="st2" d="M29.6-218.3H39v-5.5c1,2.2,2.4,3.8,4.1,5c1.7,1.1,3.6,1.7,5.6,1.7c1.4,0,2.9-0.4,4.5-1.1
						l-3.4-9.5c-1.3,0.6-2.4,1-3.2,1c-1.7,0-3.1-1-4.3-3.1c-1.2-2.1-1.8-6.2-1.8-12.4l0-2.1v-17.8H29.6V-218.3z"/>
				</g>
				<g id="g134" transform="translate(398.2084,136.121)">
					<path id="path136" class="st2" d="M29.6-218.3c-3.4,0-6.2-1.2-8.5-3.6c-2.3-2.4-3.4-5.5-3.4-9.3c0-3.8,1.1-6.9,3.4-9.4
						c2.3-2.4,5.1-3.7,8.5-3.7c3.5,0,6.3,1.2,8.6,3.6c2.3,2.4,3.4,5.6,3.4,9.5c0,3.8-1.1,6.9-3.4,9.3
						C36-219.4,33.1-218.3,29.6-218.3 M41.2-192.3h11v-60.9h-11v4.6c-2.1-2-4.3-3.5-6.5-4.4c-2.2-0.9-4.5-1.4-7-1.4
						c-5.7,0-10.6,2.2-14.7,6.6c-4.1,4.4-6.2,9.9-6.2,16.4c0,6.8,2,12.3,6,16.7c4,4.3,8.9,6.5,14.6,6.5c2.6,0,5.1-0.5,7.4-1.5
						c2.3-1,4.4-2.5,6.4-4.5C41.2-214.1,41.2-192.3,41.2-192.3z"/>
				</g>
				<path id="path138" class="st2" d="M42.3-55.9h11.1V-117H42.3V-55.9z"/>
				<g id="g140" transform="translate(257.7728,65.285)">
					<path id="path142" class="st1" d="M29.6-218.3c4.6,7.3,8.4,15.2,11.5,24.7l5,0.9l-0.8-16.7l0.6,1.3c3.1,7.1,6,10.1,9.7,10.8
						c3.8,0.7,7-2.2,7.9-7.1c1.1-5.7-0.1-12.1-3.3-17.4c1.2,0.2,1.8,0.4,2.6,0.9c2.7,1.7,4.9,4.5,7.8,8.6c0.8,1.1,1,1.6,1.6,2.3
						l1.1-6.1c-3-4.1-6.6-8.8-11.9-9.8c-1.2-0.2-2.3-0.2-4.4,0.1c-1.2-1.1-2.6-1.7-4.5-2.1c-2.6-0.5-3.7,0-4,1.5
						c-0.3,1.8-0.2,4.8,2,5.2c0.9,0.2,2,0.1,4.6-0.4c3.8,5.1,3.1,12.9,2.6,15.2c-0.6,3-1.6,4.3-3,4.1c-2.3-0.4-5-4.3-7.5-10.6
						c-2.6-6.7-3.1-9.1-3.7-19.1c-0.3-5.8-0.8-10.7-1.4-14.4c-0.2-1.4-0.9-2.1-2.4-2.3c-2.5-0.5-3.9,0.3-4.3,2
						c-0.3,1.4,0.2,5.1,1.2,10.1c1.4,6.7,2.5,14.3,3.3,21.6c0.3,2.8,0.5,5.4,0.8,10.6c-3.3-9.1-5.8-14.3-10.1-19.9L29.6-218.3z"/>
				</g>
				<g id="g144" transform="translate(314.3324,86.6014)">
					<path id="path146" class="st1" d="M29.6-218.3c-0.2,1-0.9,1.5-1.9,1.3c-3.2-0.6-6.2-5.8-6.3-11.3C27-225,30.2-221.2,29.6-218.3
						 M44.2-232.1c-6.4-6.8-12.8-10.7-19.6-12c-5.4-1-8,4.2-8.9,8.9c-1.9,10.4,3.6,21.3,11.7,22.8c3.7,0.7,6.1-0.9,6.8-4.4
						c1.4-7.4-6.8-12.7-11.3-15.5l-1.4-0.9c0.4-2.3,1.1-6.5,4.9-5.8c5.6,1,10.4,4.8,16.6,12.8C43.1-226.1,44.2-232.1,44.2-232.1z"/>
				</g>
				<g id="g148" transform="translate(327.5463,78.2577)">
					<path id="path150" class="st1" d="M29.6-218.3c2.9,4.7,4.6,8.8,6.1,14.5c-0.9,1.1-1.5,2.2-1.6,3c-0.2,1-0.1,2.7,0.1,4
						c0.1,0.7,0.6,1,1.7,1.2c3.9,0.7,4.5,0.3,4.9-1.6c0.2-1.3,0.1-2.4-0.3-4.7c5.7-0.9,8.7-1.6,9.6-6.7c0.4-2.1,0.2-4.5-0.5-8.5
						c-0.4-2.3-0.6-3.8-0.4-4.6c0.2-0.8,0.7-1.2,1.4-1c2.1,0.4,5.4,3.9,10,10.6l1.1-6.1c-5.1-6.4-9.3-9.9-13-10.6
						c-2.6-0.5-4.9,1.5-5.5,4.8c-0.4,1.9-0.2,4.2,0.7,7.8c0.7,2.9,0.9,4.8,0.6,6c-0.4,2.1-2,3.5-4.6,4.1c-1.9-6.7-4.7-12.5-9.1-18.2
						L29.6-218.3z"/>
				</g>
				<g id="g152" transform="translate(359.0736,85.6014)">
					<path id="path154" class="st1" d="M29.6-218.3c2.8,5.4,4.1,8.8,6.1,14.6c-0.4,0.3-0.6,0.6-0.7,1c-0.3,1.7,0.3,5.1,1.2,6.3
						c0.3,0.5,1.1,0.8,2.6,1l2.7,0.3c1.1,0,1.5-0.4,1.7-1.1c0.2-1.2-0.3-2.9-1.9-6.1c-0.3-0.7-0.4-0.9-0.6-1.4c3.5-3,5-5,5.5-7.7
						c0.2-1.1,1-7.7-1.7-14.3c2.1,0.4,3.8,1.1,9.6,8.3c1,1.3,1.7,2,2.7,3.2l1.1-6.1l-0.9-1.1c-5-5.8-8.4-8.1-11.3-8.7
						c-1.3-0.2-2.3-0.1-4.2,0.3c-1.6-1.4-2.9-2.1-6.1-2.7c-2.2-0.4-3,0-3.3,1.7c-0.3,1.5-0.3,3.4,0.1,4.3c0.2,0.3,0.5,0.6,0.9,0.7
						c0.7,0.1,1.8,0.2,3.1,0.2c0.8,0,1.6,0.1,1.8,0.1c1.9,0.4,3.2,9.5,2.5,13c-0.2,1-0.5,2.7-2,4.3c-0.2-0.5-0.3-0.8-0.7-1.7
						c-3.9-9.9-6.1-13.4-7.9-15.9l-1.1,6L29.6-218.3z"/>
				</g>
				<g id="g156" transform="translate(421.764,90.0155)">
					<path id="path158" class="st1" d="M29.6-218.3c-1.4-1.6-3.2-2.7-5.1-3c-2.6-0.5-5,0.1-7.7,2.1c-2.4-7.1-6-10.7-11.6-11.8
						c-5.7-1.1-9.9,2.2-11.2,8.7c-1.2,6.6,0.9,13.8,5.5,18c2.2,2,4.5,3,8.2,3.7l0.5-4.2c-2.9-1-4.5-2.1-6-4c-2-2.6-2.8-7.1-2-11.6
						c0.8-4.1,2.8-6.3,5.5-5.7c3.6,0.7,6.5,5.8,6.5,11.3c-0.9,1.8-1.1,2.4-1.4,3.7c-0.3,1.4-0.7,6,0.2,8.6l4.8,0.9
						c0.8-1.7,1-2.6,1.3-4.2c0.5-2.6,0.6-5.1,0.3-8.3c2.9-2.1,4.6-2.8,6.4-2.5c1.7,0.3,3.1,1.6,4.6,4.3L29.6-218.3z"/>
				</g>
				<g id="g160" transform="translate(427.9564,113.1073)">
					<path id="path162" class="st1" d="M29.6-218.3c-0.7-4-1-6.4-1.3-9.8c6.2,8.5,9.2,11.3,12.4,11.9c2.5,0.5,5-2,5.6-5.7
						c0.3-1.8,0.2-4.8-0.4-8.8c-0.5-3.4-0.6-5.7-0.4-7.1c0.2-1.3,0.8-2,1.6-1.8c0.8,0.2,5.7,4.1,9.6,10.9l1.1-6.1l-1.2-1.6
						c-4.6-6-7.3-8.1-10.6-8.7c-3-0.6-5.5,1.7-6.3,5.8c-0.3,1.8-0.2,4.5,0.4,8.8c0.4,3,0.5,5.2,0.4,6.2c-0.2,1.3-0.9,2.1-1.5,2
						c-1.7-0.3-4.3-3.3-10.1-11.9l-0.6-0.9c0.2-2.2,0.3-2.9,0.8-5.3c0.4-2.1,0.7-3.4,1.2-5.6l0.4-1.7l-5.8-1.1
						c-0.5,1.7-0.7,2.7-1,4.1L23-241l-0.4,2.4c-0.8,4.3-0.5,10.6,0.9,19.2L29.6-218.3z"/>
				</g>
				<g id="g164" transform="translate(474.4808,112.744)">
					<path id="path166" class="st1" d="M29.6-218.3c-3.6,2.8-4.6,3.7-6.5,3.4c-4.6-0.9-7.8-7.9-6.6-14.4c0.7-3.9,2.8-6.6,4.9-6.2
						c2.1,0.4,5.2,4.3,7.6,9.2c0.1,0.2,0.2,0.4,0.3,0.5L29.6-218.3z M45.9-228.1c-4.6-6.3-8.3-9.6-11.7-10.2c-4-0.7-4.7,4.2-5,6.2
						c-3.7-5.9-6.1-8.2-8.9-8.7c-4.3-0.8-8.9,3.2-9.9,8.8c-2,10.8,4.7,20.2,11.2,21.4c2.9,0.5,5.4-0.5,8.1-3.3l0.4,4.8l6,1.1
						l-0.9-15.8c-0.1-2.5-0.1-6,0.1-6.9c0.2-0.9,0.6-1.3,1.1-1.2c1.5,0.3,4.8,4.1,8.4,9.9C44.8-222,45.9-228.1,45.9-228.1z"/>
				</g>
				<g id="g168" transform="translate(502.0814,140.6776)">
					<path id="path170" class="st1" d="M29.6-218.3c-0.3,1.5-1,2.4-1.8,2.3c-0.9-0.2-1.7-1.3-2.2-3.3c-1.8-6.8-2.8-14-2.9-21.7
						C27.2-231.1,30.6-223.7,29.6-218.3 M66.7-232.9c-2.7-3-13.8-4.6-20.9-10c-9.9-7.6-12-19.3-19.3-19.6c-1.9-0.1-3.6-0.1-4.7,0.6
						c-1.8,1.3-3.7,4.7-4.3,8.1c-1.3,6.7-0.4,17.7,0.5,22.9c1.5,8.7,2.1,12.2,4.9,16.5c1.4,2.1,3,3.1,4.7,3.5
						c2.8,0.5,5.5-1.9,6.1-5.5c1.6-8.5-4.6-20.9-10.7-31.9c0.1-1.9,0.1-2.5,0.4-4.4c0.6-3.7,2-5,4.3-4.5c2,0.4,6.7,12.1,16,19.6
						c7.6,6.1,20,8,21.7,10.8L66.7-232.9z"/>
				</g>
				<g id="g172" transform="translate(301.9906,31.6532)">
					<path id="path174" class="st1" d="M29.6-218.3c-3.6,2.8-4.6,3.7-6.5,3.4c-4.6-0.9-7.8-7.9-6.6-14.4c0.7-3.9,2.8-6.6,4.9-6.2
						c2.1,0.4,5.2,4.3,7.6,9.2c0.1,0.2,0.2,0.4,0.3,0.5L29.6-218.3z M45.9-228.1c-4.6-6.3-8.3-9.6-11.7-10.2c-4-0.7-4.7,4.2-5,6.2
						c-3.7-5.9-6.1-8.2-8.9-8.7c-4.3-0.8-8.9,3.2-9.9,8.8c-2,10.8,4.7,20.2,11.2,21.4c2.9,0.5,5.4-0.5,8.1-3.3l0.4,4.8l6,1.1
						l-0.9-15.8c-0.1-2.5-0.1-6,0.1-6.9c0.2-0.9,0.6-1.3,1.1-1.2c1.5,0.3,4.8,4.1,8.4,9.9C44.8-222,45.9-228.1,45.9-228.1z"/>
				</g>
				<g id="g176" transform="translate(317.7132,29.0331)">
					<path id="path178" class="st1" d="M29.6-218.3c2.8,5.4,4.1,8.8,6.1,14.6c-0.4,0.3-0.6,0.6-0.7,1c-0.3,1.7,0.3,5.1,1.2,6.3
						c0.3,0.5,1.1,0.8,2.6,1l2.7,0.3c1.1,0,1.5-0.4,1.7-1.1c0.2-1.2-0.3-2.9-1.9-6.1c-0.3-0.7-0.4-0.9-0.6-1.4c3.5-3,5-5,5.5-7.7
						c0.2-1.1,1-7.7-1.8-14.3c2.1,0.4,3.8,1.1,9.6,8.3c1,1.3,1.7,2,2.7,3.2l1.1-6.1l-0.9-1.1c-5-5.8-8.4-8.1-11.3-8.7
						c-1.3-0.2-2.3-0.1-4.2,0.3c-1.6-1.4-2.9-2.1-6.1-2.7c-2.2-0.4-3,0-3.3,1.7c-0.3,1.5-0.3,3.4,0.1,4.3c0.2,0.3,0.5,0.6,0.9,0.7
						c0.7,0.1,1.8,0.2,3.1,0.2c0.8,0,1.6,0.1,1.8,0.1c1.9,0.4,3.2,9.5,2.5,13c-0.2,1-0.5,2.7-2,4.3c-0.2-0.5-0.3-0.8-0.7-1.7
						c-3.9-9.9-6.1-13.4-7.9-15.9l-1.1,6L29.6-218.3z"/>
				</g>
				<g id="g180" transform="translate(345.307,34.1942)">
					<path id="path182" class="st1" d="M29.6-218.3c2.8,5.4,4.1,8.8,6.1,14.6c-0.4,0.3-0.6,0.6-0.7,1c-0.3,1.7,0.3,5.1,1.2,6.3
						c0.3,0.5,1.1,0.8,2.6,1l2.7,0.3c1.1,0,1.5-0.4,1.7-1.1c0.2-1.2-0.3-2.9-1.9-6.1c-0.3-0.7-0.4-0.9-0.6-1.4c3.5-3,5-5,5.5-7.7
						c0.2-1.1,1-7.7-1.7-14.3c2.1,0.4,3.8,1.1,9.6,8.3c1,1.3,1.7,2,2.7,3.2l1.1-6.1l-0.9-1.1c-5-5.8-8.4-8.1-11.3-8.7
						c-1.3-0.2-2.3-0.1-4.2,0.3c-1.6-1.4-2.9-2.1-6.1-2.7c-2.2-0.4-3,0-3.3,1.7c-0.3,1.5-0.3,3.4,0.1,4.3c0.2,0.3,0.5,0.6,0.9,0.7
						c0.7,0.1,1.8,0.2,3.1,0.2c0.8,0,1.6,0.1,1.8,0.1c1.9,0.4,3.2,9.5,2.5,13c-0.2,1-0.5,2.7-2,4.3c-0.2-0.5-0.3-0.8-0.7-1.7
						c-3.9-9.9-6.1-13.4-7.9-15.9l-1.1,6L29.6-218.3z"/>
				</g>
				<g id="g184" transform="translate(381.4144,69.5829)">
					<path id="path186" class="st1" d="M29.6-218.3c0.3-1.5-0.1-4.5-0.8-5.7c-0.5-0.7-1.1-1-2.8-1.4c-2-0.4-2.8,0-3.1,1.3
						c-0.1,0.7-0.6,6.5,2.8,7.1C28-216.4,29.4-216.9,29.6-218.3 M39.3-252.4c-0.3-0.4-0.5-0.6-1.1-1.4c-4.8-5.8-8.2-8.5-11.6-9.2
						c-0.9-0.2-1.6-0.1-2.3,0.3c-1.2,0.7-2.6,4.4-3.4,8.6c-1,5.2-0.6,12.5,0.9,20.3l6,1.1l-0.3-2.3c-1.3-9.6-1.5-14.3-0.7-18.4
						c0.5-2.5,1-3.4,2-3.2c2.4,0.4,6.9,6.9,9.4,10.3C38.2-246.3,39.3-252.4,39.3-252.4z"/>
				</g>
				<g id="g188" transform="translate(390.5629,42.6581)">
					<path id="path190" class="st1" d="M29.6-218.3c2.8,5.4,4.1,8.8,6.1,14.6c-0.4,0.3-0.6,0.6-0.7,1c-0.3,1.7,0.3,5.1,1.2,6.3
						c0.3,0.5,1.1,0.8,2.6,1l2.7,0.3c1.1,0,1.5-0.4,1.7-1.1c0.2-1.2-0.3-2.9-1.9-6.1c-0.3-0.7-0.4-0.9-0.6-1.4c3.5-3,5-5,5.5-7.7
						c0.2-1.1,1-7.7-1.7-14.3c2.1,0.4,3.8,1.1,9.6,8.3c1,1.3,1.7,2,2.7,3.2l1.1-6.1l-0.9-1.1c-5-5.8-8.4-8.1-11.3-8.7
						c-1.3-0.2-2.3-0.1-4.2,0.3c-1.6-1.4-2.9-2.1-6.1-2.7c-2.2-0.4-3,0-3.3,1.7c-0.3,1.5-0.3,3.4,0.1,4.3c0.2,0.3,0.5,0.6,0.9,0.7
						c0.7,0.1,1.8,0.2,3.1,0.2c0.8,0,1.6,0.1,1.8,0.1c1.9,0.4,3.2,9.5,2.5,13c-0.2,1-0.5,2.7-2,4.3c-0.2-0.5-0.3-0.8-0.7-1.7
						c-3.9-9.9-6.1-13.4-7.9-15.9l-1.1,6L29.6-218.3z"/>
				</g>
				<g id="g192" transform="translate(420.8334,78.7069)">
					<path id="path194" class="st1" d="M29.6-218.3l6,1.1l-2.2-16.4c3.6,0.8,4.5,1,6.7,1.3l-0.1-4.5c-2.5-0.3-4.3-0.7-7.3-1.4
						l-0.1-1.2c-0.7-5.5-0.5-8.8,0.1-11.9c0.7-3.8,2-6,3.4-5.8c1.3,0.2,4.6,3.2,9.4,10.4l1.1-6.1c-6-8.1-10-9.9-12-10.2
						c-3.6-0.7-6.8,3.1-8,9.2c-0.6,3.4-0.6,6.1-0.1,12.2l0.2,2.2l-2.2-0.8l-0.2,2.9c-0.1,0.8,0.5,0.9,3,1.9L29.6-218.3z"/>
				</g>
				<g id="g196" transform="translate(456.0785,60.4706)">
					<path id="path198" class="st1" d="M29.6-218.3c-3.6,2.8-4.6,3.7-6.5,3.4c-4.6-0.9-7.8-7.9-6.6-14.4c0.7-3.9,2.8-6.6,4.9-6.2
						c2.1,0.4,5.2,4.3,7.6,9.2c0.1,0.2,0.2,0.4,0.3,0.5L29.6-218.3z M45.9-228.1c-4.6-6.3-8.3-9.6-11.7-10.2c-4-0.7-4.7,4.2-5,6.2
						c-3.7-5.9-6.1-8.2-8.9-8.7c-4.3-0.8-8.9,3.2-9.9,8.8c-2,10.8,4.7,20.2,11.2,21.4c2.9,0.5,5.4-0.5,8.1-3.3l0.4,4.8l6,1.1
						l-0.9-15.8c-0.1-2.5-0.1-6,0.1-6.9c0.2-0.9,0.6-1.3,1.1-1.2c1.5,0.3,4.8,4.1,8.4,9.9L45.9-228.1z"/>
				</g>
				<g id="g200" transform="translate(478.5775,73.7411)">
					<path id="path202" class="st1" d="M29.6-218.3c-0.7-4-1-6.4-1.3-9.8c6.2,8.5,9.2,11.3,12.4,11.9c2.5,0.5,5-2,5.6-5.7
						c0.3-1.8,0.2-4.8-0.4-8.8c-0.5-3.4-0.6-5.7-0.4-7.1c0.2-1.3,0.8-2,1.6-1.8c0.8,0.2,5.7,4.1,9.6,10.9l1.1-6.1l-1.2-1.6
						c-4.6-6-7.3-8.1-10.6-8.7c-3-0.6-5.5,1.7-6.3,5.8c-0.3,1.8-0.2,4.5,0.4,8.8c0.4,3,0.5,5.2,0.4,6.2c-0.2,1.3-0.9,2.1-1.5,2
						c-1.7-0.3-4.3-3.3-10.1-11.9l-0.6-0.9c0.2-2.2,0.3-2.9,0.8-5.3c0.4-2.1,0.7-3.4,1.2-5.6l0.4-1.7l-5.8-1.1
						c-0.5,1.7-0.7,2.7-1,4.1L23-241l-0.4,2.4c-0.8,4.3-0.5,10.6,0.9,19.2L29.6-218.3z"/>
				</g>
				<g id="g204" transform="translate(508.9886,95.1932)">
					<path id="path206" class="st1" d="M29.6-218.3l6,1.1l-2.2-16.4c3.6,0.8,4.5,1,6.7,1.3l-0.1-4.5c-2.5-0.3-4.3-0.7-7.3-1.4
						l-0.1-1.2c-0.7-5.5-0.5-8.8,0.1-11.9c0.7-3.8,2-6,3.4-5.8c1.3,0.2,4.6,3.2,9.4,10.4l1.1-6.1c-6-8.1-10-9.9-12-10.2
						c-3.6-0.7-6.8,3.1-8,9.2c-0.6,3.4-0.6,6.1-0.1,12.2l0.2,2.2l-2.2-0.8l-0.2,2.9c-0.1,0.8,0.5,0.9,3,1.9L29.6-218.3z"/>
				</g>
			</g>
		</g>
	</g>
</g>
</svg>
